<svg xmlns="http://www.w3.org/2000/svg" width="38.506" height="38.507" viewBox="0 0 38.506 38.507">
  <g id="Group_192" data-name="Group 192" transform="translate(-1520 -778)">
    <path id="Exclusion_12" data-name="Exclusion 12" d="M19.252,38.507A19.253,19.253,0,0,1,5.639,5.639,19.253,19.253,0,0,1,32.865,32.868,19.125,19.125,0,0,1,19.252,38.507Zm0-36.67A17.418,17.418,0,1,0,36.668,19.254,17.437,17.437,0,0,0,19.249,1.837Z" transform="translate(1520 778)" fill="#aa7c13"/>
    <path id="user001_-_E024" data-name="user001 - E024" d="M-3.526-36.1A6.67,6.67,0,0,0-.16-41.9a6.679,6.679,0,0,0-6.7-6.7,6.679,6.679,0,0,0-6.7,6.7A6.67,6.67,0,0,0-10.187-36.1,10.539,10.539,0,0,0-17.43-26.052h1.419a9.126,9.126,0,0,1,9.154-9.154A9.126,9.126,0,0,1,2.3-26.052H3.716A10.539,10.539,0,0,0-3.526-36.1ZM-12.134-41.9a5.258,5.258,0,0,1,5.278-5.278A5.258,5.258,0,0,1-1.579-41.9a5.281,5.281,0,0,1-5.278,5.278A5.281,5.281,0,0,1-12.134-41.9Z" transform="translate(1546.461 839.256)" fill="#aa7c13"/>
  </g>
</svg>
